<svg width="32" height="32" viewBox="0 0 32 32" fill="none" xmlns="http://www.w3.org/2000/svg">
  <style>
    path {
      fill: blue;
      @media (prefers-color-scheme: dark) {
        fill: lightblue;
      }
    }
  </style>
  <path fill-rule="evenodd" clip-rule="evenodd" d="M15.9999 3.84004C9.28414 3.84004 3.83992 9.28427 3.83992 16C3.83992 22.7157 9.28414 28.16 15.9999 28.16C22.7157 28.16 28.16 22.7157 28.16 16C28.16 9.28427 22.7157 3.84004 15.9999 3.84004ZM1.91992 16C1.91992 8.22387 8.22374 1.92005 15.9999 1.92005C23.776 1.92005 30.08 8.22387 30.08 16C30.08 23.7762 23.776 30.08 15.9999 30.08C8.22374 30.08 1.91992 23.7762 1.91992 16Z" fill="black"/>
  <path fill-rule="evenodd" clip-rule="evenodd" d="M28.7998 16.8533H3.19987V15.1466H28.7998V16.8533Z" fill="black"/>
  <path fill-rule="evenodd" clip-rule="evenodd" d="M15.1465 28.8V3.2H16.8531V28.8H15.1465ZM22.1333 16C22.1333 11.3648 20.4664 6.77926 17.1986 3.74733L18.2142 2.65261C21.8445 6.02065 23.6267 11.0352 23.6267 16C23.6267 20.9648 21.8445 25.9793 18.2142 29.3474L17.1986 28.2526C20.4664 25.2207 22.1333 20.6352 22.1333 16ZM8.53267 16C8.53267 11.0424 10.2568 6.03046 13.7764 2.66067L14.8091 3.73933C11.6442 6.76956 10.026 11.3576 10.026 16C10.026 20.6424 11.6442 25.2305 14.8092 28.2607L13.7764 29.3393C10.2568 25.9695 8.53269 20.9577 8.53267 16Z" fill="black"/>
  <path fill-rule="evenodd" clip-rule="evenodd" d="M15.9999 8.44376C20.6278 8.44376 25.334 9.29952 28.5239 11.0816C28.8841 11.2827 29.0129 11.7375 28.8117 12.0976C28.6108 12.4576 28.1557 12.5864 27.7958 12.3853C24.9161 10.7766 20.497 9.93709 15.9999 9.93709C11.5028 9.93709 7.08378 10.7766 4.20403 12.3853C3.84401 12.5864 3.38914 12.4576 3.18803 12.0976C2.98694 11.7375 3.11575 11.2827 3.47578 11.0816C6.66594 9.29952 11.372 8.44376 15.9999 8.44376ZM15.9999 23.1467C20.6278 23.1467 25.334 22.2908 28.5239 20.5088C28.8841 20.3077 29.0129 19.8528 28.8117 19.4928C28.6108 19.1328 28.1557 19.004 27.7958 19.2051C24.9161 20.8137 20.497 21.6533 15.9999 21.6533C11.5028 21.6533 7.08378 20.8137 4.20403 19.2051C3.84401 19.004 3.38914 19.1328 3.18803 19.4928C2.98694 19.8528 3.11575 20.3077 3.47578 20.5088C6.66594 22.2908 11.372 23.1467 15.9999 23.1467Z" fill="black"/>
</svg>
